g cabinet-5b

v 810.000000 -1300.000000 561.929437
v 1150.000000 -1300.000000 800.000000
v 1150.000000 -700.000000 800.000000
v 810.000000 -700.000000 561.929437
v 1150.000000 -700.000000 0.000000
v 810.000000 -700.000000 0.000000
v 1150.000000 -1300.000000 0.000000
v 810.000000 -1300.000000 0.000000
vt -0.000000 60.000000 0.000000
vt -41.506336 60.000000 0.000000
vt -0.000000 0.000000 0.000000
vt -41.506336 0.000000 0.000000
vt 24.000000 130.000000 0.000000
vt 24.000000 210.000000 0.000000
vt -10.000000 153.807056 0.000000
vt -10.000000 210.000000 0.000000
vt 0.000000 130.000000 0.000000
vt 60.000000 130.000000 0.000000
vt 0.000000 210.000000 0.000000
vt 60.000000 210.000000 0.000000
vt 0.000000 130.000000 0.000000
vt 34.000000 153.807056 0.000000
vt 0.000000 210.000000 0.000000
vt 34.000000 210.000000 0.000000
vt -153.807056 60.000000 0.000000
vt -210.000000 60.000000 0.000000
vt -153.807056 0.000000 0.000000
vt -210.000000 0.000000 0.000000
vt 22.000000 30.000000 0.000000
vt -12.000000 30.000000 0.000000
vt 22.000000 -30.000000 0.000000
vt -12.000000 -30.000000 0.000000
vn -0.057358 0.000000 0.081915
vn -0.057358 0.000000 0.081915
vn -0.057358 0.000000 0.081915
vn -0.057358 0.000000 0.081915
vn 0.000000 0.100000 0.000000
vn 0.000000 0.100000 0.000000
vn 0.000000 0.100000 0.000000
vn 0.000000 0.100000 0.000000
vn 0.100000 -0.000000 0.000000
vn 0.100000 -0.000000 0.000000
vn 0.100000 -0.000000 0.000000
vn 0.100000 -0.000000 0.000000
vn 0.000000 -0.100000 0.000000
vn 0.000000 -0.100000 0.000000
vn 0.000000 -0.100000 0.000000
vn 0.000000 -0.100000 0.000000
vn -0.100000 0.000000 0.000000
vn -0.100000 0.000000 0.000000
vn -0.100000 0.000000 0.000000
vn -0.100000 0.000000 0.000000
vn 0.000000 0.000000 -0.100000
vn 0.000000 0.000000 -0.100000
vn 0.000000 0.000000 -0.100000
vn 0.000000 0.000000 -0.100000
usemtl Orgasol®_Invent_Smooth_-_PA_12
f 1/1/1 2/2/2 4/3/3
f 4/3/3 2/2/2 3/4/4
f 3/5/5 5/6/6 4/7/7
f 4/7/7 5/6/6 6/8/8
f 3/9/9 2/10/10 5/11/11
f 5/11/11 2/10/10 7/12/12
f 2/13/13 1/14/14 7/15/15
f 7/15/15 1/14/14 8/16/16
f 4/17/17 6/18/18 1/19/19
f 1/19/19 6/18/18 8/20/20
f 6/21/21 5/22/22 8/23/23
f 8/23/23 5/22/22 7/24/24
# 8 vertices
# 24 texture params
# 24 normals
# 12 facets

# 1 groups
