g cabinet-3d

v 831.278000 130.000000 1805.000000
v 831.278000 -700.000000 1805.000000
v 831.278000 -700.000000 2100.000000
v 831.278000 130.000000 2100.000000
v 831.278000 110.000000 2080.000000
v 831.278000 -680.000000 2080.000000
v 831.278000 -680.000000 1825.000000
v 831.278000 110.000000 1825.000000
v 1150.000000 130.000000 2100.000000
v 1150.000000 130.000000 1805.000000
v 1150.000000 -700.000000 2100.000000
v 1130.000000 -680.000000 1825.000000
v 1130.000000 110.000000 1825.000000
v 1130.000000 -680.000000 2080.000000
v 1130.000000 110.000000 2080.000000
v 1150.000000 -700.000000 1805.000000
vt -0.000000 0.000000 0.000000
vt -0.000000 29.500000 0.000000
vt -2.000000 27.500000 0.000000
vt -83.000000 29.500000 0.000000
vt -81.000000 27.500000 0.000000
vt -83.000000 0.000000 0.000000
vt -81.000000 2.000000 0.000000
vt -2.000000 2.000000 0.000000
vt -14.750000 -14.873265 0.000000
vt 14.750000 -14.873265 0.000000
vt -14.750000 16.998935 0.000000
vt 14.750000 16.998935 0.000000
vt 2.000020 0.000000 0.000000
vt 33.872220 0.000000 0.000000
vt 2.000020 83.000000 0.000000
vt 33.872220 83.000000 0.000000
vt -31.872200 2.000000 0.000000
vt -2.000000 2.000000 0.000000
vt -31.872200 81.000000 0.000000
vt -2.000000 81.000000 0.000000
vt 14.873265 12.750000 0.000000
vt -14.998935 12.750000 0.000000
vt 14.873265 -12.750000 0.000000
vt -14.998935 -12.750000 0.000000
vt -27.500000 2.000000 0.000000
vt -2.000000 2.000000 0.000000
vt -27.500000 81.000000 0.000000
vt -2.000000 81.000000 0.000000
vt -2.000020 81.000000 0.000000
vt -31.872220 81.000000 0.000000
vt -2.000020 2.000000 0.000000
vt -31.872220 2.000000 0.000000
vt -12.750000 -14.873265 0.000000
vt 12.750000 -14.873265 0.000000
vt -12.750000 14.998935 0.000000
vt 12.750000 14.998935 0.000000
vt 31.872200 83.000000 0.000000
vt -0.000000 83.000000 0.000000
vt 31.872200 0.000000 0.000000
vt -0.000000 0.000000 0.000000
vt -0.000000 0.000000 0.000000
vt 29.500000 0.000000 0.000000
vt -0.000000 83.000000 0.000000
vt 29.500000 83.000000 0.000000
vt -14.873265 -14.750000 0.000000
vt 16.998935 -14.750000 0.000000
vt -14.873265 14.750000 0.000000
vt 16.998935 14.750000 0.000000
vn -0.100000 0.000000 0.000000
vn -0.100000 0.000000 0.000000
vn -0.100000 0.000000 0.000000
vn -0.100000 0.000000 0.000000
vn -0.100000 0.000000 0.000000
vn -0.100000 0.000000 0.000000
vn -0.100000 0.000000 0.000000
vn -0.100000 0.000000 0.000000
vn 0.000000 0.100000 0.000000
vn 0.000000 0.100000 0.000000
vn 0.000000 0.100000 0.000000
vn 0.000000 0.100000 0.000000
vn 0.000000 -0.000000 0.100000
vn 0.000000 -0.000000 0.100000
vn 0.000000 -0.000000 0.100000
vn 0.000000 -0.000000 0.100000
vn 0.000000 0.000000 0.100000
vn 0.000000 0.000000 0.100000
vn 0.000000 0.000000 0.100000
vn 0.000000 0.000000 0.100000
vn -0.000000 0.100000 -0.000000
vn -0.000000 0.100000 -0.000000
vn -0.000000 0.100000 -0.000000
vn -0.000000 0.100000 -0.000000
vn -0.100000 0.000000 0.000000
vn -0.100000 0.000000 0.000000
vn -0.100000 0.000000 0.000000
vn -0.100000 0.000000 0.000000
vn -0.000000 0.000000 -0.100000
vn -0.000000 0.000000 -0.100000
vn -0.000000 0.000000 -0.100000
vn -0.000000 0.000000 -0.100000
vn 0.000000 -0.100000 0.000000
vn 0.000000 -0.100000 0.000000
vn 0.000000 -0.100000 0.000000
vn 0.000000 -0.100000 0.000000
vn 0.000000 0.000000 -0.100000
vn 0.000000 0.000000 -0.100000
vn 0.000000 0.000000 -0.100000
vn 0.000000 0.000000 -0.100000
vn 0.100000 0.000000 0.000000
vn 0.100000 0.000000 0.000000
vn 0.100000 0.000000 0.000000
vn 0.100000 0.000000 0.000000
vn 0.000000 -0.100000 0.000000
vn 0.000000 -0.100000 0.000000
vn 0.000000 -0.100000 0.000000
vn 0.000000 -0.100000 0.000000
usemtl Orgasol®_Invent_Smooth_-_PA_12
f 4/1/1 1/2/2 8/3/3
f 8/3/3 1/2/2 2/4/4
f 8/3/3 2/4/4 7/5/5
f 7/5/5 2/4/4 3/6/6
f 7/5/5 3/6/6 6/7/7
f 6/7/7 3/6/6 4/1/1
f 6/7/7 4/1/1 5/8/8
f 5/8/8 4/1/1 8/3/3
f 1/9/9 4/10/10 10/11/11
f 10/11/11 4/10/10 9/12/12
f 3/13/13 11/14/14 4/15/15
f 4/15/15 11/14/14 9/16/16
f 7/17/17 12/18/18 8/19/19
f 8/19/19 12/18/18 13/20/20
f 6/21/21 14/22/22 7/23/23
f 7/23/23 14/22/22 12/24/24
f 12/25/25 14/26/26 13/27/27
f 13/27/27 14/26/26 15/28/28
f 5/29/29 15/30/30 6/31/31
f 6/31/31 15/30/30 14/32/32
f 5/33/33 8/34/34 15/35/35
f 15/35/35 8/34/34 13/36/36
f 1/37/37 10/38/38 2/39/39
f 2/39/39 10/38/38 16/40/40
f 11/41/41 16/42/42 9/43/43
f 9/43/43 16/42/42 10/44/44
f 2/45/45 16/46/46 3/47/47
f 3/47/47 16/46/46 11/48/48
# 16 vertices
# 48 texture params
# 48 normals
# 28 facets

# 1 groups
