g cabinet-1a

v 1135.000000 1885.000000 1780.000000
v 1135.000000 1275.000000 1780.000000
v 830.000000 1275.000000 1780.000000
v 830.000000 1885.000000 1780.000000
v 1135.000000 1275.000000 1800.000000
v 1135.000000 1885.000000 1800.000000
v 830.000000 1885.000000 1800.000000
v 830.000000 1275.000000 1800.000000
v 830.000000 1885.000000 15.000000
v 1135.000000 1885.000000 15.000000
v 1135.000000 1885.000000 2085.000000
v 830.000000 1885.000000 2085.000000
v 1135.000000 1275.000000 15.000000
v 1135.000000 1275.000000 2085.000000
v 830.000000 1275.000000 15.000000
v 830.000000 1275.000000 2085.000000
v 830.000000 1900.000000 0.000000
v 830.000000 1260.000000 0.000000
v 830.000000 1260.000000 2100.000000
v 830.000000 1900.000000 2100.000000
v 1150.000000 1900.000000 2100.000000
v 1150.000000 1900.000000 0.000000
v 1150.000000 1260.000000 2100.000000
v 1150.000000 1260.000000 0.000000
vt 61.000000 30.500000 0.000000
vt 0.000000 30.500000 0.000000
vt 61.000000 0.000000 0.000000
vt 0.000000 0.000000 0.000000
vt 61.000000 30.500000 0.000000
vt -0.000000 30.500000 0.000000
vt 61.000000 0.000000 0.000000
vt -0.000000 0.000000 0.000000
vt -1.500000 178.000000 0.000000
vt -32.000000 178.000000 0.000000
vt -1.500000 1.500000 0.000000
vt -32.000000 1.500000 0.000000
vt -32.000000 180.000000 0.000000
vt -1.500000 180.000000 0.000000
vt -32.000000 208.500000 0.000000
vt -1.500000 208.500000 0.000000
vt -1.500000 178.000000 0.000000
vt -62.500000 178.000000 0.000000
vt -1.500000 1.500000 0.000000
vt -62.500000 1.500000 0.000000
vt -62.500000 180.000000 0.000000
vt -1.500000 180.000000 0.000000
vt -62.500000 208.500000 0.000000
vt -1.500000 208.500000 0.000000
vt 8.000000 178.000000 0.000000
vt -22.500000 178.000000 0.000000
vt 8.000000 1.500000 0.000000
vt -22.500000 1.500000 0.000000
vt -22.500000 180.000000 0.000000
vt 8.000000 180.000000 0.000000
vt -22.500000 208.500000 0.000000
vt 8.000000 208.500000 0.000000
vt 208.500000 -1.500000 0.000000
vt 210.000000 0.000000 0.000000
vt 180.000000 -1.500000 0.000000
vt 178.000000 -1.500000 0.000000
vt 180.000000 -62.500000 0.000000
vt 178.000000 -62.500000 0.000000
vt 210.000000 -64.000000 0.000000
vt -0.000000 -64.000000 0.000000
vt 1.500000 -62.500000 0.000000
vt 1.500000 -1.500000 0.000000
vt 208.500000 -62.500000 0.000000
vt -0.000000 0.000000 0.000000
vt -20.000000 -30.500000 0.000000
vt 10.500000 -30.500000 0.000000
vt -20.000000 30.500000 0.000000
vt 10.500000 30.500000 0.000000
vt 32.000000 210.000000 0.000000
vt 0.000000 210.000000 0.000000
vt 32.000000 0.000000 0.000000
vt 0.000000 0.000000 0.000000
vt -20.000000 -32.000000 0.000000
vt 12.000000 -32.000000 0.000000
vt -20.000000 32.000000 0.000000
vt 12.000000 32.000000 0.000000
vt 20.000000 30.500000 0.000000
vt -10.500000 30.500000 0.000000
vt 20.000000 -30.500000 0.000000
vt -10.500000 -30.500000 0.000000
vt 0.000000 0.000000 0.000000
vt 64.000000 0.000000 0.000000
vt 0.000000 210.000000 0.000000
vt 64.000000 210.000000 0.000000
vt -8.000000 0.000000 0.000000
vt 24.000000 0.000000 0.000000
vt -8.000000 210.000000 0.000000
vt 24.000000 210.000000 0.000000
vt 20.000000 32.000000 0.000000
vt -12.000000 32.000000 0.000000
vt 20.000000 -32.000000 0.000000
vt -12.000000 -32.000000 0.000000
vn 0.000000 0.000000 -0.100000
vn 0.000000 0.000000 -0.100000
vn 0.000000 0.000000 -0.100000
vn 0.000000 0.000000 -0.100000
vn 0.000000 0.000000 0.100000
vn 0.000000 0.000000 0.100000
vn 0.000000 0.000000 0.100000
vn 0.000000 0.000000 0.100000
vn 0.000000 -0.100000 0.000000
vn 0.000000 -0.100000 0.000000
vn 0.000000 -0.100000 0.000000
vn 0.000000 -0.100000 0.000000
vn 0.000000 -0.100000 0.000000
vn 0.000000 -0.100000 0.000000
vn 0.000000 -0.100000 0.000000
vn 0.000000 -0.100000 0.000000
vn -0.100000 0.000000 0.000000
vn -0.100000 0.000000 0.000000
vn -0.100000 0.000000 0.000000
vn -0.100000 0.000000 0.000000
vn -0.100000 0.000000 0.000000
vn -0.100000 0.000000 0.000000
vn -0.100000 0.000000 0.000000
vn -0.100000 0.000000 0.000000
vn -0.000000 0.100000 -0.000000
vn -0.000000 0.100000 -0.000000
vn -0.000000 0.100000 -0.000000
vn -0.000000 0.100000 -0.000000
vn -0.000000 0.100000 -0.000000
vn -0.000000 0.100000 -0.000000
vn -0.000000 0.100000 -0.000000
vn -0.000000 0.100000 -0.000000
vn -0.100000 0.000000 0.000000
vn -0.100000 0.000000 0.000000
vn -0.100000 0.000000 0.000000
vn -0.100000 0.000000 0.000000
vn -0.100000 0.000000 0.000000
vn -0.100000 0.000000 0.000000
vn -0.100000 0.000000 0.000000
vn -0.100000 0.000000 0.000000
vn -0.100000 0.000000 0.000000
vn -0.100000 0.000000 0.000000
vn -0.100000 0.000000 0.000000
vn -0.100000 0.000000 0.000000
vn 0.000000 -0.000000 0.100000
vn 0.000000 -0.000000 0.100000
vn 0.000000 -0.000000 0.100000
vn 0.000000 -0.000000 0.100000
vn 0.000000 0.100000 0.000000
vn 0.000000 0.100000 0.000000
vn 0.000000 0.100000 0.000000
vn 0.000000 0.100000 0.000000
vn 0.000000 0.000000 0.100000
vn 0.000000 0.000000 0.100000
vn 0.000000 0.000000 0.100000
vn 0.000000 0.000000 0.100000
vn 0.000000 0.000000 -0.100000
vn 0.000000 0.000000 -0.100000
vn 0.000000 0.000000 -0.100000
vn 0.000000 0.000000 -0.100000
vn 0.100000 0.000000 0.000000
vn 0.100000 0.000000 0.000000
vn 0.100000 0.000000 0.000000
vn 0.100000 0.000000 0.000000
vn 0.000000 -0.100000 0.000000
vn 0.000000 -0.100000 0.000000
vn 0.000000 -0.100000 0.000000
vn 0.000000 -0.100000 0.000000
vn -0.000000 0.000000 -0.100000
vn -0.000000 0.000000 -0.100000
vn -0.000000 0.000000 -0.100000
vn -0.000000 0.000000 -0.100000
usemtl Orgasol®_Invent_Smooth_-_PA_12
f 1/1/1 2/2/2 4/3/3
f 4/3/3 2/2/2 3/4/4
f 5/5/5 6/6/6 8/7/7
f 8/7/7 6/6/6 7/8/8
f 1/9/9 4/10/10 10/11/11
f 10/11/11 4/10/10 9/12/12
f 7/13/13 6/14/14 12/15/15
f 12/15/15 6/14/14 11/16/16
f 2/17/17 1/18/18 13/19/19
f 13/19/19 1/18/18 10/20/20
f 6/21/21 5/22/22 11/23/23
f 11/23/23 5/22/22 14/24/24
f 3/25/25 2/26/26 15/27/27
f 15/27/27 2/26/26 13/28/28
f 5/29/29 8/30/30 14/31/31
f 14/31/31 8/30/30 16/32/32
f 12/33/33 20/34/34 7/35/35
f 7/35/35 20/34/34 4/36/36
f 7/35/35 4/36/36 8/37/37
f 8/37/37 4/36/36 3/38/38
f 8/37/37 3/38/38 19/39/39
f 19/39/39 3/38/38 18/40/40
f 18/40/40 3/38/38 15/41/41
f 18/40/40 15/41/41 9/42/42
f 20/34/34 12/33/33 19/39/39
f 19/39/39 12/33/33 16/43/43
f 19/39/39 16/43/43 8/37/37
f 18/40/40 9/42/42 17/44/44
f 17/44/44 9/42/42 4/36/36
f 17/44/44 4/36/36 20/34/34
f 15/45/45 13/46/46 9/47/47
f 9/47/47 13/46/46 10/48/48
f 20/49/49 21/50/50 17/51/51
f 17/51/51 21/50/50 22/52/52
f 19/53/53 23/54/54 20/55/55
f 20/55/55 23/54/54 21/56/56
f 12/57/57 11/58/58 16/59/59
f 16/59/59 11/58/58 14/60/60
f 24/61/61 22/62/62 23/63/63
f 23/63/63 22/62/62 21/64/64
f 18/65/65 24/66/66 19/67/67
f 19/67/67 24/66/66 23/68/68
f 17/69/69 22/70/70 18/71/71
f 18/71/71 22/70/70 24/72/72
# 24 vertices
# 72 texture params
# 72 normals
# 44 facets

# 1 groups
