g cabinet-3b

v 835.000000 -700.000000 1805.000000
v 835.000000 130.000000 1805.000000
v 810.000000 130.000000 1805.000000
v 810.000000 -700.000000 1805.000000
v 810.000000 130.000000 1390.000000
v 810.000000 -700.000000 1390.000000
v 1135.000000 -700.000000 1065.000000
v 1135.000000 -700.000000 800.000000
v 1155.000000 -700.000000 800.000000
v 1155.000000 -700.000000 1223.284271
v 835.000000 -700.000000 1543.284271
v 1135.000000 -535.000000 1223.284271
v 1145.000000 -535.000000 1233.284271
v 1145.000000 110.000000 1233.284271
v 1135.000000 110.000000 1223.284271
v 1145.000000 -555.000000 1233.284271
v 1135.000000 -555.000000 1223.284271
v 1135.000000 -680.000000 1223.284271
v 1145.000000 -680.000000 1233.284271
v 1135.000000 -680.000000 1093.284271
v 835.000000 -680.000000 1393.284271
v 835.000000 -680.000000 1543.284271
v 835.000000 -555.000000 1543.284271
v 835.000000 -555.000000 1393.284271
v 1135.000000 -555.000000 1093.284271
v 1135.000000 -535.000000 1093.284271
v 835.000000 -535.000000 1393.284271
v 835.000000 -535.000000 1543.284271
v 1135.000000 130.000000 1065.000000
v 835.000000 130.000000 1543.284271
v 1155.000000 130.000000 1223.284271
v 1155.000000 130.000000 800.000000
v 1135.000000 130.000000 800.000000
v 835.000000 110.000000 1543.284271
v 835.000000 110.000000 1393.284271
v 1135.000000 110.000000 1093.284271
vt -32.000000 83.000000 0.000000
vt -34.500000 83.000000 0.000000
vt -32.000000 0.000000 0.000000
vt -34.500000 0.000000 0.000000
vt -70.500000 0.000000 0.000000
vt -29.000000 0.000000 0.000000
vt -70.500000 83.000000 0.000000
vt -29.000000 83.000000 0.000000
vt 34.500000 29.000000 0.000000
vt 34.500000 70.500000 0.000000
vt 32.000000 55.171573 0.000000
vt 2.000000 103.000000 0.000000
vt 0.000000 87.171573 0.000000
vt 0.000000 129.500000 0.000000
vt 2.000000 129.500000 0.000000
vt 32.000000 29.000000 0.000000
vt 0.000000 14.500000 0.000000
vt 1.414214 14.500000 0.000000
vt 0.000000 79.000000 0.000000
vt 1.414214 79.000000 0.000000
vt 1.414214 12.500000 0.000000
vt 0.000000 12.500000 0.000000
vt 1.414214 0.000000 0.000000
vt 0.000000 0.000000 0.000000
vt -16.000000 -23.500000 0.000000
vt 15.000000 7.500000 0.000000
vt -16.000000 -8.500000 0.000000
vt 14.000000 8.500000 0.000000
vt 14.000000 21.500000 0.000000
vt -14.000000 21.500000 0.000000
vt -14.000000 8.500000 0.000000
vt 16.000000 -8.500000 0.000000
vt -15.000000 7.500000 0.000000
vt 16.000000 -23.500000 0.000000
vt -16.000000 -23.500000 0.000000
vt 15.000000 7.500000 0.000000
vt -16.000000 -8.500000 0.000000
vt 14.000000 8.500000 0.000000
vt 14.000000 21.500000 0.000000
vt -10.500000 70.500000 0.000000
vt -8.000000 55.171573 0.000000
vt 22.000000 103.000000 0.000000
vt 24.000000 87.171573 0.000000
vt 24.000000 129.500000 0.000000
vt -10.500000 29.000000 0.000000
vt -8.000000 29.000000 0.000000
vt 22.000000 129.500000 0.000000
vt -14.000000 21.500000 0.000000
vt -14.000000 8.500000 0.000000
vt 16.000000 -8.500000 0.000000
vt -15.000000 7.500000 0.000000
vt 16.000000 -23.500000 0.000000
vt -5.500000 -32.250000 0.000000
vt 7.500000 -32.250000 0.000000
vt -5.500000 32.250000 0.000000
vt 7.500000 32.250000 0.000000
vt -5.500000 -6.250000 0.000000
vt 7.500000 -6.250000 0.000000
vt -5.500000 6.250000 0.000000
vt 7.500000 6.250000 0.000000
vt -0.000000 14.500000 0.000000
vt -15.000000 14.500000 0.000000
vt -0.000000 2.000000 0.000000
vt -15.000000 2.000000 0.000000
vt -41.171573 0.000000 0.000000
vt -15.000000 0.000000 0.000000
vt -15.000000 16.500000 0.000000
vt -41.171573 83.000000 0.000000
vt -15.000000 81.000000 0.000000
vt -15.000000 83.000000 0.000000
vt -0.000000 16.500000 0.000000
vt -0.000000 81.000000 0.000000
vt -2.828427 81.000000 0.000000
vt -45.254834 81.000000 0.000000
vt -2.828427 16.500000 0.000000
vt -45.254834 16.500000 0.000000
vt -2.828427 14.500000 0.000000
vt -45.254834 14.500000 0.000000
vt -2.828427 2.000000 0.000000
vt -45.254834 2.000000 0.000000
vt 0.000000 2.000000 0.000000
vt 0.000000 0.000000 0.000000
vt 43.840620 2.000000 0.000000
vt 45.254834 0.000000 0.000000
vt 43.840620 14.500000 0.000000
vt 43.840620 16.500000 0.000000
vt 0.000000 16.500000 0.000000
vt 45.254834 83.000000 0.000000
vt 43.840620 81.000000 0.000000
vt 0.000000 83.000000 0.000000
vt 0.000000 81.000000 0.000000
vt 0.000000 14.500000 0.000000
vt 0.707107 83.000000 0.000000
vt -45.254834 83.000000 0.000000
vt 0.707107 0.000000 0.000000
vt -45.254834 0.000000 0.000000
vt 13.085786 41.500000 0.000000
vt -13.414214 41.500000 0.000000
vt 13.085786 -41.500000 0.000000
vt -13.414214 -41.500000 0.000000
vt 0.000000 0.000000 0.000000
vt 2.000000 0.000000 0.000000
vt 0.000000 83.000000 0.000000
vt 2.000000 83.000000 0.000000
vt 0.000000 87.171573 0.000000
vt 83.000000 87.171573 0.000000
vt 0.000000 129.500000 0.000000
vt 83.000000 129.500000 0.000000
vn 0.000000 0.000000 0.100000
vn 0.000000 0.000000 0.100000
vn 0.000000 0.000000 0.100000
vn 0.000000 0.000000 0.100000
vn -0.100000 0.000000 0.000000
vn -0.100000 0.000000 0.000000
vn -0.100000 0.000000 0.000000
vn -0.100000 0.000000 0.000000
vn 0.000000 -0.100000 0.000000
vn 0.000000 -0.100000 0.000000
vn 0.000000 -0.100000 0.000000
vn 0.000000 -0.100000 0.000000
vn 0.000000 -0.100000 0.000000
vn 0.000000 -0.100000 0.000000
vn 0.000000 -0.100000 0.000000
vn 0.000000 -0.100000 0.000000
vn -0.070711 0.000000 0.070711
vn -0.070711 0.000000 0.070711
vn -0.070711 0.000000 0.070711
vn -0.070711 0.000000 0.070711
vn -0.070711 0.000000 0.070711
vn -0.070711 0.000000 0.070711
vn -0.070711 0.000000 0.070711
vn -0.070711 0.000000 0.070711
vn 0.000000 0.100000 0.000000
vn 0.000000 0.100000 0.000000
vn 0.000000 0.100000 0.000000
vn 0.000000 0.100000 0.000000
vn 0.000000 0.100000 0.000000
vn 0.000000 -0.100000 0.000000
vn 0.000000 -0.100000 0.000000
vn 0.000000 -0.100000 0.000000
vn 0.000000 -0.100000 0.000000
vn 0.000000 -0.100000 0.000000
vn 0.000000 0.100000 0.000000
vn 0.000000 0.100000 0.000000
vn 0.000000 0.100000 0.000000
vn 0.000000 0.100000 0.000000
vn 0.000000 0.100000 0.000000
vn 0.000000 0.100000 0.000000
vn 0.000000 0.100000 0.000000
vn 0.000000 0.100000 0.000000
vn 0.000000 0.100000 0.000000
vn 0.000000 0.100000 0.000000
vn 0.000000 0.100000 0.000000
vn 0.000000 0.100000 0.000000
vn 0.000000 0.100000 0.000000
vn 0.000000 -0.100000 0.000000
vn 0.000000 -0.100000 0.000000
vn 0.000000 -0.100000 0.000000
vn 0.000000 -0.100000 0.000000
vn 0.000000 -0.100000 0.000000
vn -0.100000 0.000000 0.000000
vn -0.100000 0.000000 0.000000
vn -0.100000 0.000000 0.000000
vn -0.100000 0.000000 0.000000
vn -0.100000 0.000000 0.000000
vn -0.100000 0.000000 0.000000
vn -0.100000 0.000000 0.000000
vn -0.100000 0.000000 0.000000
vn 0.100000 0.000000 0.000000
vn 0.100000 0.000000 0.000000
vn 0.100000 0.000000 0.000000
vn 0.100000 0.000000 0.000000
vn 0.100000 0.000000 0.000000
vn 0.100000 0.000000 0.000000
vn 0.100000 0.000000 0.000000
vn 0.100000 0.000000 0.000000
vn 0.100000 0.000000 0.000000
vn 0.100000 0.000000 0.000000
vn 0.100000 0.000000 0.000000
vn 0.100000 0.000000 0.000000
vn 0.070711 -0.000000 0.070711
vn 0.070711 -0.000000 0.070711
vn 0.070711 -0.000000 0.070711
vn 0.070711 -0.000000 0.070711
vn 0.070711 -0.000000 0.070711
vn 0.070711 -0.000000 0.070711
vn 0.070711 -0.000000 0.070711
vn 0.070711 -0.000000 0.070711
vn 0.070711 0.000000 0.070711
vn 0.070711 0.000000 0.070711
vn 0.070711 0.000000 0.070711
vn 0.070711 0.000000 0.070711
vn 0.070711 0.000000 0.070711
vn 0.070711 0.000000 0.070711
vn 0.070711 0.000000 0.070711
vn 0.070711 0.000000 0.070711
vn 0.070711 0.000000 0.070711
vn 0.070711 0.000000 0.070711
vn 0.070711 0.000000 0.070711
vn 0.070711 0.000000 0.070711
vn -0.070711 0.000000 -0.070711
vn -0.070711 0.000000 -0.070711
vn -0.070711 0.000000 -0.070711
vn -0.070711 0.000000 -0.070711
vn -0.100000 0.000000 0.000000
vn -0.100000 0.000000 0.000000
vn -0.100000 0.000000 0.000000
vn -0.100000 0.000000 0.000000
vn 0.000000 0.000000 -0.100000
vn 0.000000 0.000000 -0.100000
vn 0.000000 0.000000 -0.100000
vn 0.000000 0.000000 -0.100000
vn 0.100000 0.000000 0.000000
vn 0.100000 0.000000 0.000000
vn 0.100000 0.000000 0.000000
vn 0.100000 0.000000 0.000000
usemtl Orgasol®_Invent_Smooth_-_PA_12
f 2/1/1 3/2/2 1/3/3
f 1/3/3 3/2/2 4/4/4
f 6/5/5 4/6/6 5/7/7
f 5/7/7 4/6/6 3/8/8
f 4/9/9 6/10/10 11/11/11
f 11/11/11 6/10/10 7/12/12
f 11/11/11 7/12/12 10/13/13
f 10/13/13 7/12/12 9/14/14
f 9/14/14 7/12/12 8/15/15
f 11/11/11 1/16/16 4/9/9
f 12/17/17 13/18/18 15/19/19
f 15/19/19 13/18/18 14/20/20
f 16/21/21 17/22/22 19/23/23
f 19/23/23 17/22/22 18/24/24
f 22/25/25 19/26/26 21/27/27
f 21/27/27 19/26/26 18/28/28
f 21/27/27 18/28/28 20/29/29
f 25/30/30 17/31/31 24/32/32
f 24/32/32 17/31/31 16/33/33
f 24/32/32 16/33/33 23/34/34
f 28/35/35 13/36/36 27/37/37
f 27/37/37 13/36/36 12/38/38
f 27/37/37 12/38/38 26/39/39
f 5/40/40 30/41/41 29/42/42
f 29/42/42 30/41/41 31/43/43
f 29/42/42 31/43/43 32/44/44
f 5/40/40 3/45/45 30/41/41
f 30/41/41 3/45/45 2/46/46
f 32/44/44 33/47/47 29/42/42
f 36/48/48 15/49/49 35/50/50
f 35/50/50 15/49/49 14/51/51
f 35/50/50 14/51/51 34/52/52
f 26/53/53 12/54/54 36/55/55
f 36/55/55 12/54/54 15/56/56
f 20/57/57 18/58/58 25/59/59
f 25/59/59 18/58/58 17/60/60
f 24/61/61 23/62/62 21/63/63
f 21/63/63 23/62/62 22/64/64
f 22/64/64 23/62/62 1/65/65
f 22/64/64 1/65/65 11/66/66
f 23/62/62 28/67/67 1/65/65
f 1/65/65 28/67/67 2/68/68
f 2/68/68 28/67/67 34/69/69
f 2/68/68 34/69/69 30/70/70
f 28/67/67 27/71/71 34/69/69
f 34/69/69 27/71/71 35/72/72
f 36/73/73 35/74/74 26/75/75
f 26/75/75 35/74/74 27/76/76
f 25/77/77 24/78/78 20/79/79
f 20/79/79 24/78/78 21/80/80
f 22/81/81 11/82/82 19/83/83
f 19/83/83 11/82/82 10/84/84
f 19/83/83 10/84/84 16/85/85
f 16/85/85 10/84/84 13/86/86
f 16/85/85 13/86/86 28/87/87
f 10/84/84 31/88/88 13/86/86
f 13/86/86 31/88/88 14/89/89
f 14/89/89 31/88/88 30/90/90
f 14/89/89 30/90/90 34/91/91
f 28/87/87 23/92/92 16/85/85
f 5/93/93 29/94/94 6/95/95
f 6/95/95 29/94/94 7/96/96
f 29/97/97 33/98/98 7/99/99
f 7/99/99 33/98/98 8/100/100
f 9/101/101 8/102/102 32/103/103
f 32/103/103 8/102/102 33/104/104
f 31/105/105 10/106/106 32/107/107
f 32/107/107 10/106/106 9/108/108
# 36 vertices
# 108 texture params
# 108 normals
# 68 facets

# 1 groups
