g cabinet-2b

v 810.000000 1240.000000 380.000000
v 810.000000 150.000000 380.000000
v 1130.000000 150.000000 380.000000
v 1130.000000 1240.000000 380.000000
v 810.000000 150.000000 720.000000
v 1130.000000 150.000000 720.000000
v 810.000000 1240.000000 720.000000
v 1130.000000 1240.000000 720.000000
v 810.000000 1240.000000 20.000000
v 810.000000 150.000000 20.000000
v 1130.000000 150.000000 20.000000
v 1130.000000 1240.000000 20.000000
v 810.000000 150.000000 360.000000
v 1130.000000 150.000000 360.000000
v 810.000000 1240.000000 360.000000
v 1130.000000 1240.000000 360.000000
v 870.000000 1260.000000 800.000000
v 810.000000 1260.000000 740.000000
v 810.000000 130.000000 740.000000
v 870.000000 130.000000 800.000000
v 1150.000000 1260.000000 800.000000
v 1150.000000 1260.000000 0.000000
v 810.000000 1260.000000 0.000000
v 1150.000000 130.000000 800.000000
v 1150.000000 130.000000 0.000000
v 810.000000 130.000000 0.000000
vt -109.000000 0.000000 0.000000
vt -0.000000 0.000000 0.000000
vt -109.000000 32.000000 0.000000
vt -0.000000 32.000000 0.000000
vt -34.000000 0.000000 0.000000
vt 0.000000 0.000000 0.000000
vt -34.000000 32.000000 0.000000
vt 0.000000 32.000000 0.000000
vt -109.000000 0.000000 0.000000
vt 0.000000 0.000000 0.000000
vt -109.000000 32.000000 0.000000
vt 0.000000 32.000000 0.000000
vt -34.000000 0.000000 0.000000
vt -0.000000 0.000000 0.000000
vt -34.000000 32.000000 0.000000
vt -0.000000 32.000000 0.000000
vt 17.000000 54.500000 0.000000
vt -17.000000 54.500000 0.000000
vt 17.000000 -54.500000 0.000000
vt -17.000000 -54.500000 0.000000
vt -109.000000 0.000000 0.000000
vt -0.000000 0.000000 0.000000
vt -109.000000 32.000000 0.000000
vt -0.000000 32.000000 0.000000
vt -34.000000 0.000000 0.000000
vt 0.000000 0.000000 0.000000
vt -34.000000 32.000000 0.000000
vt 0.000000 32.000000 0.000000
vt -109.000000 0.000000 0.000000
vt -0.000000 0.000000 0.000000
vt -109.000000 32.000000 0.000000
vt -0.000000 32.000000 0.000000
vt -34.000000 0.000000 0.000000
vt -0.000000 0.000000 0.000000
vt -34.000000 32.000000 0.000000
vt -0.000000 32.000000 0.000000
vt 17.000000 54.500000 0.000000
vt -17.000000 54.500000 0.000000
vt 17.000000 -54.500000 0.000000
vt -17.000000 -54.500000 0.000000
vt 4.242641 113.000000 0.000000
vt -4.242641 113.000000 0.000000
vt 4.242641 0.000000 0.000000
vt -4.242641 0.000000 0.000000
vt -10.000000 136.000000 0.000000
vt -4.000000 130.000000 0.000000
vt -10.000000 210.000000 0.000000
vt 24.000000 210.000000 0.000000
vt 24.000000 130.000000 0.000000
vt -28.000000 0.000000 0.000000
vt -0.000000 0.000000 0.000000
vt -28.000000 113.000000 0.000000
vt -0.000000 113.000000 0.000000
vt 0.000000 130.000000 0.000000
vt 113.000000 130.000000 0.000000
vt 0.000000 210.000000 0.000000
vt 113.000000 210.000000 0.000000
vt 34.000000 136.000000 0.000000
vt 34.000000 210.000000 0.000000
vt 28.000000 130.000000 0.000000
vt 0.000000 210.000000 0.000000
vt 0.000000 130.000000 0.000000
vt -172.000000 111.000000 0.000000
vt -174.000000 111.000000 0.000000
vt -172.000000 2.000000 0.000000
vt -174.000000 2.000000 0.000000
vt -136.000000 0.000000 0.000000
vt -210.000000 0.000000 0.000000
vt -208.000000 2.000000 0.000000
vt -208.000000 111.000000 0.000000
vt -138.000000 111.000000 0.000000
vt -136.000000 113.000000 0.000000
vt -210.000000 113.000000 0.000000
vt -138.000000 2.000000 0.000000
vt 22.000000 56.500000 0.000000
vt -12.000000 56.500000 0.000000
vt 22.000000 -56.500000 0.000000
vt -12.000000 -56.500000 0.000000
vn 0.000000 0.000000 0.100000
vn 0.000000 0.000000 0.100000
vn 0.000000 0.000000 0.100000
vn 0.000000 0.000000 0.100000
vn -0.000000 0.100000 -0.000000
vn -0.000000 0.100000 -0.000000
vn -0.000000 0.100000 -0.000000
vn -0.000000 0.100000 -0.000000
vn 0.000000 0.000000 -0.100000
vn 0.000000 0.000000 -0.100000
vn 0.000000 0.000000 -0.100000
vn 0.000000 0.000000 -0.100000
vn 0.000000 -0.100000 0.000000
vn 0.000000 -0.100000 0.000000
vn 0.000000 -0.100000 0.000000
vn 0.000000 -0.100000 0.000000
vn -0.100000 0.000000 0.000000
vn -0.100000 0.000000 0.000000
vn -0.100000 0.000000 0.000000
vn -0.100000 0.000000 0.000000
vn 0.000000 0.000000 0.100000
vn 0.000000 0.000000 0.100000
vn 0.000000 0.000000 0.100000
vn 0.000000 0.000000 0.100000
vn -0.000000 0.100000 -0.000000
vn -0.000000 0.100000 -0.000000
vn -0.000000 0.100000 -0.000000
vn -0.000000 0.100000 -0.000000
vn 0.000000 0.000000 -0.100000
vn 0.000000 0.000000 -0.100000
vn 0.000000 0.000000 -0.100000
vn 0.000000 0.000000 -0.100000
vn 0.000000 -0.100000 0.000000
vn 0.000000 -0.100000 0.000000
vn 0.000000 -0.100000 0.000000
vn 0.000000 -0.100000 0.000000
vn -0.100000 0.000000 0.000000
vn -0.100000 0.000000 0.000000
vn -0.100000 0.000000 0.000000
vn -0.100000 0.000000 0.000000
vn -0.070711 0.000000 0.070711
vn -0.070711 0.000000 0.070711
vn -0.070711 0.000000 0.070711
vn -0.070711 0.000000 0.070711
vn 0.000000 0.100000 0.000000
vn 0.000000 0.100000 0.000000
vn 0.000000 0.100000 0.000000
vn 0.000000 0.100000 0.000000
vn 0.000000 0.100000 0.000000
vn 0.000000 0.000000 0.100000
vn 0.000000 0.000000 0.100000
vn 0.000000 0.000000 0.100000
vn 0.000000 0.000000 0.100000
vn 0.100000 0.000000 0.000000
vn 0.100000 0.000000 0.000000
vn 0.100000 0.000000 0.000000
vn 0.100000 0.000000 0.000000
vn 0.000000 -0.100000 0.000000
vn 0.000000 -0.100000 0.000000
vn 0.000000 -0.100000 0.000000
vn 0.000000 -0.100000 0.000000
vn 0.000000 -0.100000 0.000000
vn -0.100000 0.000000 0.000000
vn -0.100000 0.000000 0.000000
vn -0.100000 0.000000 0.000000
vn -0.100000 0.000000 0.000000
vn -0.100000 0.000000 0.000000
vn -0.100000 0.000000 0.000000
vn -0.100000 0.000000 0.000000
vn -0.100000 0.000000 0.000000
vn -0.100000 0.000000 0.000000
vn -0.100000 0.000000 0.000000
vn -0.100000 0.000000 0.000000
vn -0.100000 0.000000 0.000000
vn 0.000000 0.000000 -0.100000
vn 0.000000 0.000000 -0.100000
vn 0.000000 0.000000 -0.100000
vn 0.000000 0.000000 -0.100000
usemtl Orgasol®_Invent_Smooth_-_PA_12
f 1/1/1 2/2/2 4/3/3
f 4/3/3 2/2/2 3/4/4
f 2/5/5 5/6/6 3/7/7
f 3/7/7 5/6/6 6/8/8
f 5/9/9 7/10/10 6/11/11
f 6/11/11 7/10/10 8/12/12
f 7/13/13 1/14/14 8/15/15
f 8/15/15 1/14/14 4/16/16
f 8/17/17 4/18/18 6/19/19
f 6/19/19 4/18/18 3/20/20
f 9/21/21 10/22/22 12/23/23
f 12/23/23 10/22/22 11/24/24
f 10/25/25 13/26/26 11/27/27
f 11/27/27 13/26/26 14/28/28
f 13/29/29 15/30/30 14/31/31
f 14/31/31 15/30/30 16/32/32
f 15/33/33 9/34/34 16/35/35
f 16/35/35 9/34/34 12/36/36
f 16/37/37 12/38/38 14/39/39
f 14/39/39 12/38/38 11/40/40
f 17/41/41 18/42/42 20/43/43
f 20/43/43 18/42/42 19/44/44
f 18/45/45 17/46/46 23/47/47
f 23/47/47 17/46/46 22/48/48
f 22/48/48 17/46/46 21/49/49
f 20/50/50 24/51/51 17/52/52
f 17/52/52 24/51/51 21/53/53
f 21/54/54 24/55/55 22/56/56
f 22/56/56 24/55/55 25/57/57
f 19/58/58 26/59/59 20/60/60
f 20/60/60 26/59/59 25/61/61
f 20/60/60 25/61/61 24/62/62
f 1/63/63 15/64/64 2/65/65
f 2/65/65 15/64/64 13/66/66
f 2/65/65 13/66/66 19/67/67
f 19/67/67 13/66/66 26/68/68
f 26/68/68 13/66/66 10/69/69
f 26/68/68 10/69/69 9/70/70
f 7/71/71 18/72/72 1/63/63
f 1/63/63 18/72/72 23/73/73
f 1/63/63 23/73/73 15/64/64
f 15/64/64 23/73/73 9/70/70
f 9/70/70 23/73/73 26/68/68
f 18/72/72 7/71/71 19/67/67
f 19/67/67 7/71/71 5/74/74
f 19/67/67 5/74/74 2/65/65
f 23/75/75 22/76/76 26/77/77
f 26/77/77 22/76/76 25/78/78
# 26 vertices
# 78 texture params
# 78 normals
# 48 facets

# 1 groups
