g cabinet-4a

v 1150.000000 -700.000000 2100.000000
v 1150.000000 -1900.000000 2100.000000
v 1150.000000 -1900.000000 1050.000000
v 1150.000000 -700.000000 1050.000000
v 810.000000 -1900.000000 1390.000000
v 810.000000 -700.000000 1390.000000
v 830.000000 -700.000000 2100.000000
v 830.000000 -1900.000000 2100.000000
v 810.000000 -1900.000000 1800.000000
v 810.000000 -700.000000 1800.000000
v 830.000000 -1280.000000 2080.000000
v 830.000000 -1280.000000 1820.000000
v 830.000000 -720.000000 1820.000000
v 830.000000 -720.000000 2080.000000
v 830.000000 -700.000000 1800.000000
v 830.000000 -1900.000000 1800.000000
v 830.000000 -1880.000000 1820.000000
v 830.000000 -1320.000000 1820.000000
v 830.000000 -1320.000000 2080.000000
v 830.000000 -1880.000000 2080.000000
v 1130.000000 -1320.000000 1820.000000
v 1130.000000 -1320.000000 2080.000000
v 1130.000000 -1880.000000 1820.000000
v 1130.000000 -1880.000000 2080.000000
v 1130.000000 -720.000000 1820.000000
v 1130.000000 -720.000000 2080.000000
v 1130.000000 -1280.000000 1820.000000
v 1130.000000 -1280.000000 2080.000000
vt -0.000000 0.000000 0.000000
vt 120.000000 0.000000 0.000000
vt 0.000000 105.000000 0.000000
vt 120.000000 105.000000 0.000000
vt -48.083261 0.000000 0.000000
vt -0.000000 0.000000 0.000000
vt -48.083261 120.000000 0.000000
vt -0.000000 120.000000 0.000000
vt -20.000000 -90.000000 0.000000
vt 12.000000 -90.000000 0.000000
vt -20.000000 30.000000 0.000000
vt 12.000000 30.000000 0.000000
vt -30.000000 60.000000 0.000000
vt -71.000000 60.000000 0.000000
vt -30.000000 -60.000000 0.000000
vt -71.000000 -60.000000 0.000000
vt -13.000000 -28.000000 0.000000
vt 13.000000 -32.000000 0.000000
vt 13.000000 -28.000000 0.000000
vt 15.000000 -90.000000 0.000000
vt 15.000000 30.000000 0.000000
vt -13.000000 28.000000 0.000000
vt -15.000000 30.000000 0.000000
vt -15.000000 -90.000000 0.000000
vt -13.000000 -32.000000 0.000000
vt -13.000000 -88.000000 0.000000
vt 13.000000 -88.000000 0.000000
vt 13.000000 28.000000 0.000000
vt 60.000000 2.000000 0.000000
vt -60.000000 2.000000 0.000000
vt 60.000000 0.000000 0.000000
vt -60.000000 0.000000 0.000000
vt -26.000000 2.000000 0.000000
vt -0.000000 2.000000 0.000000
vt -26.000000 32.000000 0.000000
vt -0.000000 32.000000 0.000000
vt -56.000000 2.000000 0.000000
vt -0.000000 2.000000 0.000000
vt -56.000000 32.000000 0.000000
vt -0.000000 32.000000 0.000000
vt -56.000000 2.000000 0.000000
vt -0.000000 2.000000 0.000000
vt -56.000000 32.000000 0.000000
vt -0.000000 32.000000 0.000000
vt -26.000000 2.000000 0.000000
vt -0.000000 2.000000 0.000000
vt -26.000000 32.000000 0.000000
vt -0.000000 32.000000 0.000000
vt -13.000000 -28.000000 0.000000
vt 13.000000 -28.000000 0.000000
vt -13.000000 28.000000 0.000000
vt 13.000000 28.000000 0.000000
vt 34.000000 30.000000 0.000000
vt 34.000000 71.000000 0.000000
vt 32.000000 30.000000 0.000000
vt 0.000000 105.000000 0.000000
vt -0.000000 0.000000 0.000000
vt 32.000000 0.000000 0.000000
vt -26.000000 2.000000 0.000000
vt -0.000000 2.000000 0.000000
vt -26.000000 32.000000 0.000000
vt -0.000000 32.000000 0.000000
vt -56.000000 2.000000 0.000000
vt -0.000000 2.000000 0.000000
vt -56.000000 32.000000 0.000000
vt -0.000000 32.000000 0.000000
vt -26.000000 2.000000 0.000000
vt -0.000000 2.000000 0.000000
vt -26.000000 32.000000 0.000000
vt -0.000000 32.000000 0.000000
vt -56.000000 2.000000 0.000000
vt -0.000000 2.000000 0.000000
vt -56.000000 32.000000 0.000000
vt -0.000000 32.000000 0.000000
vt -13.000000 -28.000000 0.000000
vt 13.000000 -28.000000 0.000000
vt -13.000000 28.000000 0.000000
vt 13.000000 28.000000 0.000000
vt -8.000000 0.000000 0.000000
vt 24.000000 0.000000 0.000000
vt -8.000000 30.000000 0.000000
vt 24.000000 105.000000 0.000000
vt -10.000000 71.000000 0.000000
vt -10.000000 30.000000 0.000000
vn 0.100000 -0.000000 0.000000
vn 0.100000 -0.000000 0.000000
vn 0.100000 -0.000000 0.000000
vn 0.100000 -0.000000 0.000000
vn -0.070711 0.000000 -0.070711
vn -0.070711 0.000000 -0.070711
vn -0.070711 0.000000 -0.070711
vn -0.070711 0.000000 -0.070711
vn 0.000000 0.000000 0.100000
vn 0.000000 0.000000 0.100000
vn 0.000000 0.000000 0.100000
vn 0.000000 0.000000 0.100000
vn -0.100000 0.000000 0.000000
vn -0.100000 0.000000 0.000000
vn -0.100000 0.000000 0.000000
vn -0.100000 0.000000 0.000000
vn -0.100000 0.000000 0.000000
vn -0.100000 0.000000 0.000000
vn -0.100000 0.000000 0.000000
vn -0.100000 0.000000 0.000000
vn -0.100000 0.000000 0.000000
vn -0.100000 0.000000 0.000000
vn -0.100000 0.000000 0.000000
vn -0.100000 0.000000 0.000000
vn -0.100000 0.000000 0.000000
vn -0.100000 0.000000 0.000000
vn -0.100000 0.000000 0.000000
vn -0.100000 0.000000 0.000000
vn 0.000000 0.000000 0.100000
vn 0.000000 0.000000 0.100000
vn 0.000000 0.000000 0.100000
vn 0.000000 0.000000 0.100000
vn 0.000000 -0.100000 0.000000
vn 0.000000 -0.100000 0.000000
vn 0.000000 -0.100000 0.000000
vn 0.000000 -0.100000 0.000000
vn 0.000000 0.000000 0.100000
vn 0.000000 0.000000 0.100000
vn 0.000000 0.000000 0.100000
vn 0.000000 0.000000 0.100000
vn 0.000000 0.000000 -0.100000
vn 0.000000 0.000000 -0.100000
vn 0.000000 0.000000 -0.100000
vn 0.000000 0.000000 -0.100000
vn -0.000000 0.100000 -0.000000
vn -0.000000 0.100000 -0.000000
vn -0.000000 0.100000 -0.000000
vn -0.000000 0.100000 -0.000000
vn -0.100000 0.000000 0.000000
vn -0.100000 0.000000 0.000000
vn -0.100000 0.000000 0.000000
vn -0.100000 0.000000 0.000000
vn 0.000000 -0.100000 0.000000
vn 0.000000 -0.100000 0.000000
vn 0.000000 -0.100000 0.000000
vn 0.000000 -0.100000 0.000000
vn 0.000000 -0.100000 0.000000
vn 0.000000 -0.100000 0.000000
vn 0.000000 -0.100000 0.000000
vn 0.000000 -0.100000 0.000000
vn 0.000000 -0.100000 0.000000
vn 0.000000 -0.100000 0.000000
vn 0.000000 0.000000 0.100000
vn 0.000000 0.000000 0.100000
vn 0.000000 0.000000 0.100000
vn 0.000000 0.000000 0.100000
vn -0.000000 0.100000 -0.000000
vn -0.000000 0.100000 -0.000000
vn -0.000000 0.100000 -0.000000
vn -0.000000 0.100000 -0.000000
vn 0.000000 0.000000 -0.100000
vn 0.000000 0.000000 -0.100000
vn 0.000000 0.000000 -0.100000
vn 0.000000 0.000000 -0.100000
vn -0.100000 0.000000 0.000000
vn -0.100000 0.000000 0.000000
vn -0.100000 0.000000 0.000000
vn -0.100000 0.000000 0.000000
vn 0.000000 0.100000 0.000000
vn 0.000000 0.100000 0.000000
vn 0.000000 0.100000 0.000000
vn 0.000000 0.100000 0.000000
vn 0.000000 0.100000 0.000000
vn 0.000000 0.100000 0.000000
usemtl Orgasol®_Invent_Smooth_-_PA_12
f 1/1/1 2/2/2 4/3/3
f 4/3/3 2/2/2 3/4/4
f 6/5/5 4/6/6 5/7/7
f 5/7/7 4/6/6 3/8/8
f 8/9/9 2/10/10 7/11/11
f 7/11/11 2/10/10 1/12/12
f 10/13/13 6/14/14 9/15/15
f 9/15/15 6/14/14 5/16/16
f 12/17/17 19/18/18 11/19/19
f 11/19/19 19/18/18 8/20/20
f 11/19/19 8/20/20 7/21/21
f 13/22/22 15/23/23 12/17/17
f 12/17/17 15/23/23 16/24/24
f 12/17/17 16/24/24 18/25/25
f 18/25/25 16/24/24 17/26/26
f 17/26/26 16/24/24 8/20/20
f 17/26/26 8/20/20 20/27/27
f 20/27/27 8/20/20 19/18/18
f 13/22/22 14/28/28 15/23/23
f 15/23/23 14/28/28 7/21/21
f 7/21/21 14/28/28 11/19/19
f 18/25/25 19/18/18 12/17/17
f 16/29/29 15/30/30 9/31/31
f 9/31/31 15/30/30 10/32/32
f 19/33/33 18/34/34 22/35/35
f 22/35/35 18/34/34 21/36/36
f 18/37/37 17/38/38 21/39/39
f 21/39/39 17/38/38 23/40/40
f 20/41/41 19/42/42 24/43/43
f 24/43/43 19/42/42 22/44/44
f 17/45/45 20/46/46 23/47/47
f 23/47/47 20/46/46 24/48/48
f 23/49/49 24/50/50 21/51/51
f 21/51/51 24/50/50 22/52/52
f 9/53/53 5/54/54 16/55/55
f 16/55/55 5/54/54 3/56/56
f 16/55/55 3/56/56 2/57/57
f 2/57/57 8/58/58 16/55/55
f 14/59/59 13/60/60 26/61/61
f 26/61/61 13/60/60 25/62/62
f 13/63/63 12/64/64 25/65/65
f 25/65/65 12/64/64 27/66/66
f 12/67/67 11/68/68 27/69/69
f 27/69/69 11/68/68 28/70/70
f 11/71/71 14/72/72 28/73/73
f 28/73/73 14/72/72 26/74/74
f 27/75/75 28/76/76 25/77/77
f 25/77/77 28/76/76 26/78/78
f 7/79/79 1/80/80 15/81/81
f 15/81/81 1/80/80 4/82/82
f 15/81/81 4/82/82 6/83/83
f 6/83/83 10/84/84 15/81/81
# 28 vertices
# 84 texture params
# 84 normals
# 52 facets

# 1 groups
