g floor

v 50.000000 730.294755 -5.000000
v 43.913045 687.997763 -5.000000
v 26.146193 649.133569 -5.000000
v -1.858609 616.856369 -5.000000
v -1.858609 616.856369 0.000000
v 26.146193 649.133569 0.000000
v 43.913045 687.997763 0.000000
v 50.000000 730.294755 0.000000
v -507.739640 179.192628 -5.000000
v -507.739640 179.192628 0.000000
v -537.215817 159.270269 -5.000000
v -570.554779 146.850165 -5.000000
v -605.881031 142.631014 -5.000000
v -605.881031 142.631014 0.000000
v -570.554779 146.850165 0.000000
v -537.215817 159.270269 0.000000
v -1150.000000 142.631014 -5.000000
v -1150.000000 142.631014 0.000000
v 1150.000000 -1900.000000 -5.000000
v 1150.000000 1900.000000 -5.000000
v 1150.000000 1900.000000 0.000000
v 1150.000000 -1900.000000 0.000000
v -1150.000000 -1900.000000 -5.000000
v -1150.000000 -1900.000000 0.000000
v 50.000000 1900.000000 0.000000
v 50.000000 1900.000000 -5.000000
vt 0.500000 6.431786 0.000000
vt 0.000000 6.431786 0.000000
vt 0.500000 2.143929 0.000000
vt 0.000000 2.143929 0.000000
vt 0.500000 -2.143929 0.000000
vt 0.000000 -2.143929 0.000000
vt 0.500000 -6.431786 0.000000
vt -0.000000 -6.431786 0.000000
vt 6.857283 0.000000 0.000000
vt 73.750120 0.000000 0.000000
vt 6.857283 0.500000 0.000000
vt 73.750120 0.500000 0.000000
vt 0.500000 5.349186 0.000000
vt 0.000000 5.349186 0.000000
vt 0.500000 1.783062 0.000000
vt 0.000000 1.783062 0.000000
vt 0.500000 -1.783062 0.000000
vt 0.000000 -1.783062 0.000000
vt 0.500000 -5.349186 0.000000
vt 0.000000 -5.349186 0.000000
vt 5.588103 0.000000 0.000000
vt 60.000000 0.000000 0.000000
vt 5.588103 0.500000 0.000000
vt 60.000000 0.500000 0.000000
vt 0.000000 0.000000 0.000000
vt 380.000000 0.000000 0.000000
vt 0.000000 0.500000 0.000000
vt 380.000000 0.500000 0.000000
vt 0.000000 0.000000 0.000000
vt 230.000000 0.000000 0.000000
vt 0.000000 0.500000 0.000000
vt 230.000000 0.500000 0.000000
vt -0.000000 0.000000 0.000000
vt 204.263101 0.000000 0.000000
vt -0.000000 0.500000 0.000000
vt 204.263101 0.500000 0.000000
vt 116.970525 0.500000 0.000000
vt -0.000000 0.500000 0.000000
vt 116.970525 0.000000 0.000000
vt -0.000000 0.000000 0.000000
vt -0.000000 0.000000 0.000000
vt 110.000000 0.000000 0.000000
vt -0.000000 0.500000 0.000000
vt 110.000000 0.500000 0.000000
vt 5.000000 190.000000 0.000000
vt 5.000000 73.029475 0.000000
vt 115.000000 190.000000 0.000000
vt 4.391304 68.799776 0.000000
vt 115.000000 -190.000000 0.000000
vt 2.614619 64.913357 0.000000
vt -0.185861 61.685637 0.000000
vt -50.773964 17.919263 0.000000
vt -115.000000 -190.000000 0.000000
vt -53.721582 15.927027 0.000000
vt -57.055478 14.685017 0.000000
vt -60.588103 14.263101 0.000000
vt -115.000000 14.263101 0.000000
vt -5.000000 190.000000 0.000000
vt -115.000000 190.000000 0.000000
vt -5.000000 73.029475 0.000000
vt -4.391304 68.799776 0.000000
vt -115.000000 -190.000000 0.000000
vt -2.614619 64.913357 0.000000
vt 0.185861 61.685637 0.000000
vt 50.773964 17.919263 0.000000
vt 115.000000 -190.000000 0.000000
vt 53.721582 15.927027 0.000000
vt 57.055478 14.685017 0.000000
vt 60.588103 14.263101 0.000000
vt 115.000000 14.263101 0.000000
vn -0.100000 0.000000 0.000000
vn -0.100000 0.000000 0.000000
vn -0.095942 0.028198 -0.000000
vn -0.095942 0.028198 -0.000000
vn -0.084097 0.054107 -0.000000
vn -0.084097 0.054107 -0.000000
vn -0.065428 0.075626 -0.000000
vn -0.065428 0.075626 -0.000000
vn -0.065428 0.075626 0.000000
vn -0.065428 0.075626 0.000000
vn -0.045777 0.088907 -0.000000
vn -0.045777 0.088907 -0.000000
vn -0.023551 0.097187 -0.000000
vn -0.023551 0.097187 -0.000000
vn 0.000000 0.100000 0.000000
vn 0.000000 0.100000 0.000000
vn 0.000000 0.100000 0.000000
vn 0.000000 0.100000 0.000000
vn 0.100000 0.000000 0.000000
vn 0.100000 0.000000 0.000000
vn 0.100000 0.000000 0.000000
vn 0.100000 0.000000 0.000000
vn 0.000000 -0.100000 0.000000
vn 0.000000 -0.100000 0.000000
vn 0.000000 -0.100000 0.000000
vn 0.000000 -0.100000 0.000000
vn -0.100000 0.000000 0.000000
vn -0.100000 0.000000 0.000000
vn -0.100000 0.000000 0.000000
vn -0.100000 0.000000 0.000000
vn -0.100000 0.000000 0.000000
vn -0.100000 0.000000 0.000000
vn 0.000000 0.100000 0.000000
vn 0.000000 0.100000 0.000000
vn 0.000000 0.100000 0.000000
vn 0.000000 0.100000 0.000000
vn 0.000000 0.000000 0.100000
vn 0.000000 0.000000 0.100000
vn 0.000000 0.000000 0.100000
vn 0.000000 0.000000 0.100000
vn 0.000000 0.000000 0.100000
vn 0.000000 0.000000 0.100000
vn 0.000000 0.000000 0.100000
vn 0.000000 0.000000 0.100000
vn 0.000000 0.000000 0.100000
vn 0.000000 0.000000 0.100000
vn 0.000000 0.000000 0.100000
vn 0.000000 0.000000 0.100000
vn 0.000000 0.000000 0.100000
vn 0.000000 0.000000 -0.100000
vn 0.000000 0.000000 -0.100000
vn 0.000000 0.000000 -0.100000
vn 0.000000 0.000000 -0.100000
vn 0.000000 0.000000 -0.100000
vn 0.000000 0.000000 -0.100000
vn 0.000000 0.000000 -0.100000
vn 0.000000 0.000000 -0.100000
vn 0.000000 0.000000 -0.100000
vn 0.000000 0.000000 -0.100000
vn 0.000000 0.000000 -0.100000
vn 0.000000 0.000000 -0.100000
vn 0.000000 0.000000 -0.100000
usemtl Plastic_-_Translucent_Matte_(Blue)
f 8/1/1 1/2/2 7/3/3
f 7/3/3 1/2/2 2/4/4
f 7/3/3 2/4/4 6/5/5
f 6/5/5 2/4/4 3/6/6
f 6/5/5 3/6/6 5/7/7
f 5/7/7 3/6/6 4/8/8
f 4/9/8 9/10/9 5/11/7
f 5/11/7 9/10/9 10/12/10
f 10/13/10 9/14/9 16/15/11
f 16/15/11 9/14/9 11/16/12
f 16/15/11 11/16/12 15/17/13
f 15/17/13 11/16/12 12/18/14
f 15/17/13 12/18/14 14/19/15
f 14/19/15 12/18/14 13/20/16
f 13/21/16 17/22/17 14/23/15
f 14/23/15 17/22/17 18/24/18
f 19/25/19 20/26/20 22/27/21
f 22/27/21 20/26/20 21/28/22
f 23/29/23 19/30/24 24/31/25
f 24/31/25 19/30/24 22/32/26
f 17/33/27 23/34/28 18/35/29
f 18/35/29 23/34/28 24/36/30
f 8/37/1 25/38/31 1/39/2
f 1/39/2 25/38/31 26/40/32
f 20/41/33 26/42/34 21/43/35
f 21/43/35 26/42/34 25/44/36
f 25/45/37 8/46/38 21/47/39
f 21/47/39 8/46/38 7/48/40
f 21/47/39 7/48/40 22/49/41
f 22/49/41 7/48/40 6/50/42
f 22/49/41 6/50/42 5/51/43
f 5/51/43 10/52/44 22/49/41
f 22/49/41 10/52/44 24/53/45
f 24/53/45 10/52/44 16/54/46
f 24/53/45 16/54/46 15/55/47
f 15/55/47 14/56/48 24/53/45
f 24/53/45 14/56/48 18/57/49
f 26/58/50 20/59/51 1/60/52
f 1/60/52 20/59/51 2/61/53
f 2/61/53 20/59/51 19/62/54
f 2/61/53 19/62/54 3/63/55
f 3/63/55 19/62/54 4/64/56
f 4/64/56 19/62/54 9/65/57
f 9/65/57 19/62/54 23/66/58
f 9/65/57 23/66/58 11/67/59
f 11/67/59 23/66/58 12/68/60
f 12/68/60 23/66/58 13/69/61
f 13/69/61 23/66/58 17/70/62
# 26 vertices
# 70 texture params
# 62 normals
# 48 facets

# 1 groups
